<svg version="1.1" id="design" xmlns="http://www.w3.org/2000/svg" xmlns:xlink="http://www.w3.org/1999/xlink" x="0px" y="0px"
	 viewBox="0 0 294.6 61.6" style="enable-background:new 0 0 294.6 61.6;" width="294.6" height="61.6" xml:space="preserve">
<style type="text/css">
	.st0{fill:#E8F3FB;}
	.st1{fill:#4FC08D;}
</style>
<path class="st0" d="M104.2,26.2c-0.7-1.4-1.6-2.6-2.9-3.7s-2.9-1.9-4.8-2.5s-4-1-6.5-1c-2.8,0-5.3,0.5-7.6,1.4
	c-2.3,0.9-4.4,2.2-6.1,3.9c-1.7,1.7-3.1,3.7-4,6c-1,2.3-1.4,4.9-1.4,7.7c0,2.9,0.5,5.6,1.5,7.9c1,2.3,2.3,4.2,4.1,5.8
	c1.7,1.6,3.7,2.8,6,3.6s4.7,1.2,7.4,1.2c1.9,0,3.6-0.1,5.2-0.4c1.6-0.3,3-0.6,4.2-1s2.2-0.8,3-1.2c0.7-0.4,1.2-0.6,1.6-0.9l0.2-0.1
	l-3-5.6l-0.2,0.1c-0.3,0.1-0.6,0.3-1.1,0.5c-0.6,0.3-1.3,0.6-2.1,0.8c-0.8,0.3-1.8,0.5-2.8,0.7s-2.2,0.3-3.4,0.3
	c-3.6,0-6.4-0.7-8.3-2.2s-3.1-3.4-3.5-5.8c0.9,0,1.8,0.1,2.6,0.1c0.8,0,1.7,0,2.6,0c4,0,7.4-0.3,10-0.8s4.7-1.3,6.3-2.3
	c1.5-1,2.6-2.1,3.2-3.5c0.6-1.3,0.9-2.8,0.9-4.5C105.2,29.1,104.9,27.6,104.2,26.2L104.2,26.2z M97,32.6c-0.3,0.7-0.9,1.2-1.8,1.8
	c-0.9,0.5-2.1,0.9-3.7,1.3c-1.6,0.3-3.7,0.5-6.3,0.5h-3c-1,0-2,0-3.1-0.1l0,0c0-1.4,0.3-2.7,0.8-4s1.2-2.5,2.1-3.5s2-1.8,3.3-2.4
	s2.9-0.9,4.6-0.9c2.1,0,3.9,0.5,5.3,1.3c1.4,0.9,2.1,2.2,2.1,4C97.4,31.2,97.2,31.9,97,32.6z"/>
<path class="st0" d="M118.2,3.7c-0.7-0.2-1.5-0.3-2.3-0.3c-1.4,0-2.4,0.3-3.2,0.9c-0.8,0.6-1.1,1.5-1.1,2.8v48.2h8V4.2l-0.2-0.1
	C119.2,4,118.8,3.9,118.2,3.7z"/>
<path class="st0" d="M155.3,46.9c-0.6,0.3-1.4,0.8-2.7,1.3c-1.4,0.6-3.3,1-5.7,1c-1.6,0-3.2-0.2-4.6-0.7c-1.4-0.4-2.7-1.1-3.7-2.1
	c-1.1-0.9-1.9-2.1-2.5-3.6c-0.6-1.4-0.9-3.2-0.9-5.3c0-2,0.3-3.7,0.9-5.1c0.6-1.4,1.4-2.6,2.4-3.6s2.2-1.7,3.6-2.1
	c1.4-0.5,2.9-0.7,4.5-0.7c2.3,0,4.3,0.4,5.9,1.1c1.5,0.7,2.7,1.4,3.5,2.1l0.2,0.1l0.2-0.1c0.5-0.4,1.1-1,1.6-1.7
	c0.6-0.8,1-1.7,1-2.6c0-0.7-0.2-1.4-0.7-2.1c-0.4-0.7-1.2-1.3-2.2-1.9s-2.3-1-3.9-1.4c-1.6-0.4-3.6-0.6-5.9-0.6
	c-2.7,0-5.3,0.4-7.6,1.2c-2.4,0.8-4.4,2-6.2,3.6c-1.7,1.6-3.1,3.6-4.1,5.9s-1.5,5-1.5,8s0.5,5.7,1.5,8s2.4,4.2,4.1,5.8
	c1.7,1.6,3.8,2.8,6.1,3.6s4.8,1.2,7.4,1.2c1.7,0,3.2-0.1,4.5-0.4c1.3-0.2,2.5-0.5,3.6-0.9s2-0.7,2.8-1.1c0.7-0.3,1.4-0.7,1.9-1
	l0.2-0.1l-3.4-6L155.3,46.9z"/>
<path class="st0" d="M193.7,22.5c-1.3-1.2-2.9-2.1-4.7-2.7s-3.8-0.9-6-0.9c-3,0-5.5,0.5-7.3,1.5c-1.9,1-3.3,2-4.2,3.2l0,0V4.2
	l-0.2-0.1c-0.2-0.1-0.6-0.2-1.2-0.4c-0.7-0.2-1.5-0.3-2.3-0.3c-1.4,0-2.4,0.3-3.2,0.9s-1.1,1.5-1.1,2.8v48.2h8v-19
	c0-3,0.8-5.5,2.4-7.4s4-2.8,7.2-2.8c3.1,0,5.4,0.8,6.7,2.4s1.9,4,1.9,7v19.7h8v-22c0-2.4-0.4-4.5-1.1-6.3
	C196,25.2,195,23.7,193.7,22.5z"/>
<path class="st0" d="M212.9,20.3c-0.7-0.2-1.5-0.3-2.3-0.3c-1.4,0-2.4,0.3-3.2,0.9c-0.7,0.6-1.1,1.5-1.1,2.9v31.6h8V20.7l-0.2-0.1
	C213.9,20.6,213.5,20.4,212.9,20.3z"/>
<path class="st0" d="M249.7,45.5c-3.3-3.4-6.9-6.7-10.9-9.6c0.7-0.5,1.9-1.3,3.5-2.4c1.6-1.1,3.3-2.3,5.1-3.6
	c1.8-1.3,3.6-2.6,5.2-3.9c1.6-1.2,2.9-2.3,3.9-3.1l0.2-0.1l-0.1-0.2c-0.3-0.4-0.8-0.9-1.6-1.5c-0.9-0.7-2-1-3.2-1
	c-1.4,0-2.5,0.2-3.3,0.6s-1.8,1-2.8,1.7c-1.3,0.9-2.7,1.9-4.2,3s-2.9,2.1-4.2,3.1c-1.4,1-2.6,1.9-3.7,2.7c-1.1,0.8-2,1.4-2.6,1.9
	V4.2l-0.2-0.1c-0.2-0.1-0.6-0.2-1.2-0.4c-0.7-0.2-1.5-0.3-2.3-0.3c-1.4,0-2.4,0.3-3.2,0.9S223,5.8,223,7.1v48.2h8v-16
	c1.5,1.1,3,2.3,4.5,3.6c1.6,1.3,3.1,2.6,4.6,4s3,2.8,4.3,4.2s2.5,2.8,3.6,4l0.1,0.1h10l-0.3-0.4C255.6,51.9,252.9,48.8,249.7,45.5z"
	/>
<path class="st0" d="M292.6,27c-0.9-1.9-2.2-3.5-3.8-4.6c-1.6-1.2-3.6-2-5.9-2.6c-2.3-0.5-4.8-0.8-7.6-0.8c-2.3,0-4.2,0.1-5.7,0.4
	s-2.7,0.7-3.6,1.2s-1.5,1.1-1.9,1.7s-0.5,1.3-0.5,1.9c0,0.9,0.2,1.7,0.7,2.4c0.4,0.5,0.7,0.9,1,1.2l0.1,0.1l0.2-0.1
	c0.6-0.4,1.6-0.9,3-1.4c1.6-0.6,3.8-0.9,6.4-0.9c1.6,0,3.1,0.1,4.4,0.4c1.3,0.2,2.4,0.7,3.4,1.3c0.9,0.6,1.7,1.5,2.2,2.5
	c0.5,1.1,0.8,2.5,0.8,4.1l0,0c-0.8-0.1-2-0.2-3.6-0.3s-3.3-0.2-5.1-0.2c-3.1,0-5.7,0.2-7.9,0.7c-2.2,0.5-3.9,1.2-5.2,2.2
	c-1.3,1-2.3,2.2-2.9,3.7c-0.6,1.4-0.9,3.2-0.9,5.1c0,1.4,0.2,2.9,0.7,4.3s1.4,2.6,2.7,3.7c1.3,1.1,3.2,1.9,5.5,2.5s5.3,1,9,1
	c1.8,0,3.6,0,5.3-0.1c1.7-0.1,3.2-0.2,4.6-0.3c1.3-0.1,2.5-0.2,3.6-0.4l0,0c0.9-0.1,1.5-0.2,2-0.3h0.2V34
	C294,31.3,293.5,28.9,292.6,27z M286,49.8c-0.4,0.1-1.3,0.2-2.5,0.4c-1.3,0.2-3,0.2-5.1,0.2c-1.9,0-3.5-0.1-4.8-0.4
	c-1.3-0.3-2.3-0.6-3.1-1.1c-0.7-0.5-1.3-1.1-1.6-1.8c-0.3-0.7-0.5-1.5-0.5-2.3c0-2.1,0.7-3.6,2.2-4.5c1.4-1,3.8-1.4,7-1.4
	c2.6,0,4.5,0.1,5.8,0.3s2.2,0.3,2.6,0.4V49.8z"/>
<path class="st0" d="M210.3,3.4c-1.4,0-2.5,0.5-3.5,1.4c-0.9,0.9-1.4,2.1-1.4,3.5s0.5,2.5,1.4,3.5c0.9,0.9,2.1,1.4,3.5,1.4
	s2.5-0.5,3.5-1.4c0.9-0.9,1.4-2.1,1.4-3.5s-0.5-2.5-1.4-3.5C212.8,3.9,211.7,3.4,210.3,3.4z"/>
<g>
	<g>
		<g>
			<circle class="st1" cx="31.7" cy="55.3" r="6.2"/>
		</g>
		<g>
			<circle class="st1" cx="10.8" cy="19.9" r="6.2"/>
		</g>
		<g>
			<g>
				<path class="st1" d="M10.8,52.1c-5,0-9.1-4.1-9.1-9.1s4.1-9,9.1-9s9.1,4.1,9.1,9.1S15.8,52.1,10.8,52.1z M10.8,37.8
					c-2.9,0-5.2,2.4-5.2,5.2c0,2.9,2.4,5.2,5.2,5.2S16,45.8,16,43C16.1,40.1,13.7,37.8,10.8,37.8z"/>
			</g>
		</g>
		<g>
			<g>
				<path class="st1" d="M31.5,0.1c-1.2,0-2.4,0.1-3.6,0.2l0.9,4.4c0.9-0.1,1.8-0.2,2.7-0.2c11.6,0,21.6,7.4,25.4,17.7l4.4-1.2
					C56.9,8.9,45.2,0.1,31.5,0.1z"/>
			</g>
			<g>
				<path class="st1" d="M31.5,9.2c-0.6,0-1.2,0-1.8,0.1l0.9,4.5c0.3,0,0.6-0.1,0.9-0.1c7.5,0,13.9,4.6,16.7,11l4.4-1.2
					C49.3,15.1,41.1,9.2,31.5,9.2z"/>
			</g>
			<g>
				<path class="st1" d="M43.9,25.9c-2.2-4.6-6.9-7.8-12.4-7.8l0,0l0.9,4.5l0,0c3,0.3,5.6,2.1,7.1,4.6v-0.1L43.9,25.9z"/>
			</g>
		</g>
		<path class="st1" d="M37.5,32.6c0-0.3,0.1-0.5,0.1-0.8c0-3.4-2.8-6.2-6.2-6.2c-1.4,0-2.7,0.5-3.7,1.3L12,17.8l-2.4,4.1L25.3,31
			c0,0.3-0.1,0.5-0.1,0.8c0,0.2,0,0.4,0,0.6l-9.5,5.2l2.3,4.2l9.5-5.2c0.5,0.4,1,0.7,1.5,0.9l0.2,17.9H34l-0.2-17.9
			c0.5-0.2,0.9-0.5,1.3-0.8l9,5.2l2.4-4.1L37.5,32.6z M31.5,34.7c-1.5,0-2.8-1.3-2.8-2.8s1.3-2.8,2.8-2.8s2.8,1.3,2.8,2.8
			S33,34.7,31.5,34.7z"/>
	</g>
	<g>
		<g>
			<path class="st1" d="M57,51.7h-9.9c-1.7,0-3.1-1.4-3.1-3.1v-9.9c0-1.7,1.4-3.1,3.1-3.1H57c1.7,0,3.1,1.4,3.1,3.1v9.9
				C60.1,50.3,58.7,51.7,57,51.7z M47.9,47.9h8.4v-8.4h-8.4V47.9z"/>
		</g>
	</g>
</g>
</svg>
